<svg preserveAspectRatio="none" width="100%" height="100%" overflow="visible" style="display: block;" viewBox="0 0 59.7061 61.0322" fill="none" xmlns="http://www.w3.org/2000/svg">
<path id="Union" d="M46.6855 0C53.8762 0.000106371 59.7058 5.82988 59.7061 13.0205V48.0117C59.7061 55.2025 53.8763 61.0321 46.6855 61.0322H13.0205C5.82973 61.0321 0 55.2025 0 48.0117V13.0205C0.000217564 5.82989 5.82987 0.00012427 13.0205 0H46.6855ZM7.96094 49.0908C6.49564 49.0909 5.30783 50.2798 5.30762 51.7451C5.30776 53.2105 6.4956 54.3983 7.96094 54.3984C9.42629 54.3983 10.6141 53.2105 10.6143 51.7451C10.614 50.2798 9.42625 49.0909 7.96094 49.0908ZM51.0811 49.0908C49.6159 49.0912 48.428 50.28 48.4277 51.7451C48.4279 53.2103 49.6159 54.3981 51.0811 54.3984C52.5465 54.3984 53.7352 53.2105 53.7354 51.7451C53.7351 50.2798 52.5465 49.0908 51.0811 49.0908ZM14.8672 47.7646C18.8374 51.0775 23.9464 53.0712 29.5215 53.0713C35.0966 53.0712 40.2057 51.0775 44.1758 47.7646H14.8672ZM7.9375 37.8135C8.69989 39.9704 9.77561 41.9791 11.1113 43.7842H47.9307C49.2664 41.979 50.3421 39.9704 51.1045 37.8135H7.9375ZM6.75 27.8633C6.6731 28.6266 6.6338 29.401 6.63379 30.1846C6.63379 31.4266 6.73438 32.6456 6.9248 33.834H52.1172C52.3076 32.6456 52.4082 31.4266 52.4082 30.1846C52.4082 29.401 52.3689 28.6266 52.292 27.8633H6.75ZM10.2002 17.9121C9.03529 19.7422 8.1227 21.7486 7.5127 23.8828H51.5293C50.9193 21.7485 50.0067 19.7422 48.8418 17.9121H10.2002ZM29.5215 7.29688C23.2373 7.29694 17.5453 9.8311 13.4092 13.9316H45.6338C41.4978 9.83107 35.8057 7.29698 29.5215 7.29688ZM7.96094 5.9707C6.49568 5.97083 5.3079 7.15881 5.30762 8.62402C5.30762 10.0895 6.49551 11.2772 7.96094 11.2773C9.42638 11.2772 10.6143 10.0895 10.6143 8.62402C10.614 7.15879 9.42621 5.97081 7.96094 5.9707ZM51.0811 5.9707C49.616 5.97104 48.428 7.15894 48.4277 8.62402C48.4277 10.0893 49.6158 11.277 51.0811 11.2773C52.5466 11.2773 53.7354 10.0896 53.7354 8.62402C53.7351 7.15873 52.5464 5.9707 51.0811 5.9707Z" fill="var(--fill-0, #4C4C46)"/>
</svg>
