<svg preserveAspectRatio="none" width="100%" height="100%" overflow="visible" style="display: block;" viewBox="0 0 39.0607 52.8947" fill="none" xmlns="http://www.w3.org/2000/svg">
<path id="Vector" d="M38.7603 21.2577C39.1252 20.7169 39.1602 20.0204 38.8516 19.4462C38.5429 18.8719 37.9407 18.5132 37.2852 18.5132H25.5915V1.76326C25.5915 1.00964 25.1092 0.339348 24.3912 0.0951957C23.6733 -0.148948 22.8784 0.0870322 22.4132 0.682448L0.37268 28.8928C-0.0427304 29.4246 -0.117105 30.1449 0.181017 30.7493C0.479121 31.3537 1.09779 31.7368 1.77549 31.7368H14.6937V51.1315C14.6937 51.9077 15.2048 52.5926 15.9528 52.8184C16.7006 53.0441 17.5091 52.7577 17.9442 52.1128L38.7603 21.2577Z" fill="var(--fill-0, #4C4C46)"/>
</svg>
