<svg preserveAspectRatio="none" width="100%" height="100%" overflow="visible" style="display: block;" viewBox="0 0 57.7773 45.3675" fill="none" xmlns="http://www.w3.org/2000/svg">
<path id="Vector" d="M57.5193 9.14937C57.3472 7.90571 57.0895 6.57559 56.7456 5.16019C56.4017 3.74518 55.8916 2.54416 55.2145 1.55753C54.0871 -0.0845351 51.9024 -0.553993 50.3381 0.759725C48.2597 2.50514 46.6536 4.33621 43.9299 5.04727C42.3283 5.46617 40.5716 5.7228 38.6586 5.81953C36.7456 5.91626 34.827 5.98061 32.9033 6.01259C30.9792 6.04457 29.0499 6.1413 27.1155 6.30199C25.1811 6.46307 23.6227 6.73628 22.4406 7.12241C20.0974 7.89426 17.905 8.91841 15.863 10.1944C13.8209 11.4705 11.9886 12.9609 10.3657 14.6657C8.74276 16.3705 7.46372 18.3489 6.52897 20.6005C5.59423 22.8513 5.12646 25.2107 5.12646 27.6767C5.12646 28.8134 5.22302 29.9283 5.41654 31.0224C5.45967 31.2367 5.63143 31.7085 5.93259 32.4378C6.23375 33.167 6.38413 33.5744 6.38413 33.6605C6.38413 34.0675 6.05092 34.5828 5.38448 35.2042C4.71805 35.826 3.98751 36.4266 3.19207 37.0053C2.39662 37.5841 1.66608 38.2865 0.999648 39.1121C0.333216 39.938 0 40.7261 0 41.4762C0 41.6266 0.0158304 41.7707 0.0482813 41.9109C0.0807323 42.0503 0.113183 42.1517 0.145238 42.2157C0.177293 42.2804 0.236655 42.3874 0.322532 42.5371C0.408804 42.6871 0.472913 42.8055 0.516049 42.8908C0.881716 43.5122 1.1718 43.9631 1.38668 44.2419C1.60157 44.5202 1.93439 44.7776 2.38594 45.0137C2.83708 45.2494 3.38558 45.3675 4.03025 45.3675C4.65394 45.3675 5.29861 45.0244 5.96504 44.3386C6.63107 43.6528 7.1954 42.9015 7.65763 42.087C8.11946 41.2725 8.60346 40.5215 9.10843 39.8354C9.6134 39.1496 10.038 38.8065 10.3819 38.8065C10.8762 38.8065 11.9079 39.2033 13.477 39.9968C15.0462 40.7908 15.992 41.2409 16.3145 41.3483C19.2806 42.3562 22.3543 42.86 25.5357 42.86C30.3507 42.86 35.0577 41.7012 39.6578 39.3853C44.3656 37.048 48.2075 34.1749 51.1846 30.7649C54.1618 27.355 56.1445 23.2489 57.1334 18.4448C57.5624 16.3432 57.7773 14.274 57.7773 12.2368C57.7773 11.4219 57.6914 10.3926 57.5193 9.14937ZM40.6567 20.0533C40.2479 20.4607 39.7639 20.6645 39.2051 20.6645C35.2932 20.6645 31.9242 21.2219 29.0974 22.3369C26.271 23.4518 23.3853 25.339 20.4405 27.9981C20.0112 28.4055 19.2909 29.1131 18.2806 30.121C17.2702 31.129 16.4748 31.8902 15.8946 32.4046C15.4431 32.812 14.9595 33.0162 14.4434 33.0162C13.8843 33.0162 13.4007 32.812 12.9923 32.4046C12.5838 31.9979 12.3796 31.5147 12.3796 30.9572C12.3796 30.4424 12.5838 29.9607 12.9923 29.5098C15.6144 26.6147 18.1456 24.2612 20.5854 22.4494C23.0251 20.6376 25.8143 19.2009 28.9526 18.1392C32.0904 17.0776 35.5081 16.547 39.2051 16.547C39.7639 16.547 40.2479 16.7507 40.6567 17.1581C41.0647 17.566 41.2689 18.0484 41.2689 18.6059C41.2689 19.1634 41.0651 19.6459 40.6567 20.0533Z" fill="var(--fill-0, #4C4C46)"/>
</svg>
