<svg preserveAspectRatio="none" width="100%" height="100%" overflow="visible" style="display: block;" viewBox="0 0 64.2871 45.5713" fill="none" xmlns="http://www.w3.org/2000/svg">
<path id="Subtract" d="M49.9648 0C54.9778 0 57.4847 0.000143317 59.3994 0.975586C61.0837 1.83379 62.4533 3.20338 63.3115 4.8877C64.2872 6.80251 64.2871 9.309 64.2871 14.3223V31.249C64.2871 36.262 64.2871 38.7688 63.3115 40.6836C62.4533 42.3678 61.0836 43.7366 59.3994 44.5947C57.4846 45.5703 54.9779 45.5713 49.9648 45.5713H14.3223C9.30901 45.5713 6.80251 45.5704 4.8877 44.5947C3.20349 43.7366 1.83378 42.3678 0.975586 40.6836C-3.16782e-05 38.7688 8.33048e-10 36.262 0 31.249V14.3223C0 9.30912 8.4658e-06 6.80249 0.975586 4.8877C1.83379 3.20338 3.20338 1.83379 4.8877 0.975586C6.80249 7.66595e-06 9.30912 0 14.3223 0H49.9648ZM15.624 6.50977C12.4339 6.50977 10.8386 6.51001 9.62012 7.13086C8.54841 7.67697 7.67697 8.54841 7.13086 9.62012C6.51001 10.8386 6.50977 12.4339 6.50977 15.624V29.1328C6.50977 32.323 6.51001 33.9182 7.13086 35.1367C7.67694 36.2085 8.5484 37.0798 9.62012 37.626C10.8386 38.2468 12.4339 38.2471 15.624 38.2471H48.6631C51.8533 38.2471 53.4485 38.2468 54.667 37.626C55.7388 37.0799 56.6101 36.2085 57.1562 35.1367C57.7771 33.9182 57.7773 32.3231 57.7773 29.1328V15.624C57.7773 12.4339 57.7771 10.8386 57.1562 9.62012C56.6101 8.54842 55.7387 7.67694 54.667 7.13086C53.4485 6.51005 51.8533 6.50977 48.6631 6.50977H15.624Z" fill="var(--fill-0, #4C4C46)"/>
</svg>
