<svg preserveAspectRatio="none" width="100%" height="100%" overflow="visible" style="display: block;" viewBox="0 0 63.2916 63.2949" fill="none" xmlns="http://www.w3.org/2000/svg">
<path id="Vector" d="M21.8505 0C20.2039 0 18.837 1.36688 18.837 3.01345L18.8339 18.8371H3.01345C1.36688 18.8371 0 20.204 0 21.8506V41.4412C0 43.0877 1.36688 44.4546 3.01345 44.4546H18.8371V60.2783C18.8371 61.9248 20.204 63.2917 21.8506 63.2917L41.4379 63.2949C43.0845 63.2949 44.4514 61.928 44.4514 60.2814L44.4545 44.4578H60.2782C61.9248 44.4578 63.2916 43.0909 63.2916 41.4443V21.8538C63.2916 20.2072 61.9248 18.8403 60.2782 18.8403L44.4545 18.8371V3.01671C44.4545 1.37014 43.0877 0.00325405 41.4411 0.00325405L21.8505 0Z" fill="var(--fill-0, #4C4C46)"/>
</svg>
