<svg width="186" height="156" viewBox="0 0 186 156" fill="none" xmlns="http://www.w3.org/2000/svg">
<path d="M139.341 83.1902C137.594 86.586 136.212 90.5852 132.615 92.6312C131.103 93.5766 127.596 95.1478 129.058 91.7095C131.477 86.5215 135.953 81.7604 137.147 76.2839C137.848 73.3938 137.852 70.4113 138.055 67.4534C138.301 63.3606 139.275 59.0588 138.89 54.8143C138.387 47.3272 135.528 38.978 130.317 33.8618C127.433 31.1353 123.492 28.8761 120.028 26.2032C118.516 25.0633 116.921 23.8551 115.153 23.2054C112.076 22.0218 108.507 22.1358 105.351 21.2255C101.976 20.201 98.7954 18.4425 95.2415 17.8875C83.2258 16.0021 70.3645 20.8781 61.4274 28.9096C57.2464 33.3598 54.8381 38.9909 51.597 44.0789C46.1007 54.7567 49.5978 67.9344 53.5831 78.6263C54.9647 81.9323 57.4025 84.5688 59.9392 87.0216C64.026 91.0211 67.5542 95.3409 72.9365 97.611C87.6161 104.421 105.497 102.426 118.511 92.9331C120.731 91.2593 124.701 87.6053 125.379 87.5955C125.831 87.5974 125.524 88.1098 125.415 88.4571C122.764 93.9472 117.168 97.3138 112.283 100.546C110.592 101.759 108.954 103.127 107.115 104.103C104.094 105.728 100.401 106.454 97.3352 108.204C88.6743 113.939 84.0357 108.895 76.5052 104.385C73.8326 103.15 70.1511 101.589 67.5542 102.848C66.1491 103.686 66.1166 105.479 64.6448 105.757C61.8586 105.994 58.9724 104.14 56.986 102.339C55.0992 100.342 54.2997 97.9941 51.6903 95.0819C47.5183 90.6223 44.0371 87.6071 42.0185 81.5455C35.278 68.4887 31.6684 68.2337 37.2678 52.5066C39.2939 47.5982 39.5677 42.4202 38.8621 37.259C38.7227 28.7321 45.9866 23.4942 53.7807 21.1192C64.1826 16.6767 56.7983 16.4095 59.2452 13.8899C61.4516 11.8235 65.4441 10.092 68.7276 8.46948C73.1632 6.46128 77.2814 4.3076 82.0752 3.43316C97.3524 1.55883 115.613 7.2197 126.092 18.5929C127.427 19.9749 128.389 21.4863 129.85 22.6484C131.555 23.9137 134.157 24.6516 135.69 26.4754C137.396 28.3474 138.136 30.8565 139.552 32.9638C141.206 35.49 143.717 38.8006 144.93 42.6146C147.73 50.4801 144.93 58.4511 144.047 66.2592C143.684 70.206 145.547 73.8568 144.212 76.8604C143.155 79.2109 140.791 80.7623 139.48 82.971L139.367 83.1665L139.341 83.1902Z" fill="#5D5D51" fill-opacity="0.47"/>
<path d="M64.2386 72.8474C70.2852 79.8426 77.0224 86.966 86.7292 87.2776C98.3634 86.703 111.928 78.8706 112.825 66.0079C113.087 61.0253 110.621 56.0146 109.048 51.6145C107.802 48.298 105.725 45.3522 102.674 43.5356C93.453 37.1908 78.2776 42.6745 75.6117 53.5997C73.5165 61.9611 79.518 71.9477 88.4474 72.1507C95.8719 72.7333 102.643 65.643 99.8202 58.4086C99.1366 56.5364 97.7814 54.8341 96.0411 53.6283C92.7672 51.2415 87.9219 50.9501 87.6728 50.2052C87.7454 48.9971 92.282 48.1069 95.9274 49.2046C102.362 51.1752 106.473 59.1923 104.976 65.7585C102.261 77.4974 86.8309 82.1245 77.1338 75.5407C70.6747 71.7375 67.777 64.1151 66.4972 57.0849C65.7628 54.0219 65.062 51.0104 65.0162 47.9022C65.0199 40.3059 72.623 36.0864 78.0384 31.7849C81.5822 29.2761 85.9383 28.536 90.1694 28.2461C96.3484 27.5413 101.911 27.9254 106.093 32.7175C108.131 34.8939 110.77 35.8073 113.586 35.8282C120.189 36.0151 121.865 43.799 124.162 48.7747C135.76 76.2954 99.3318 103.39 75.2355 88.3679C67.5952 83.8379 61.3685 76.3741 59.1041 67.5897C58.7227 65.7852 58.8611 65.113 59.4557 65.8169C61.0757 68.0052 62.2103 70.5232 64.0789 72.6522L64.2386 72.8474Z" fill="#5D5D51" fill-opacity="0.47"/>
<path d="M121.467 97.7884C125.314 95.77 124.163 100.099 122.42 101.764C121.778 102.433 120.902 103.012 120.028 103.377C118.184 104.201 116.204 102.932 117.514 100.963C118.313 99.7599 120.215 98.5977 121.298 97.8919L121.48 97.7891L121.467 97.7884Z" fill="#5D5D51" fill-opacity="0.47"/>
<path d="M84.9631 64.3077C86.3019 64.8775 87.9603 65.0122 89.2775 64.3807C91.6441 63.2764 91.9108 59.6225 89.1435 58.8036C87.3596 58.2186 84.317 59.0492 83.9526 56.5224C83.7779 55.7196 84.0772 54.8405 83.983 54.0659C83.8336 53.4278 82.3467 55.319 81.9392 57.2169C81.2304 59.8306 82.1687 62.9629 84.7348 64.2007L84.9631 64.3077Z" fill="#5D5D51" fill-opacity="0.47"/>
<path d="M26.6142 126.056H2.85569C1.96268 126.056 1.30468 125.868 0.881683 125.492C0.505682 125.069 0.317681 124.411 0.317681 123.518V77.8334C0.317681 76.9404 0.505682 76.3059 0.881683 75.9299C1.30468 75.5069 1.96268 75.2954 2.85569 75.2954H26.6142C32.4892 75.2954 36.8368 76.4704 39.6568 78.8204C42.5238 81.1704 43.9573 84.7894 43.9573 89.6774V111.673C43.9573 116.561 42.5238 120.18 39.6568 122.531C36.8368 124.881 32.4892 126.056 26.6142 126.056ZM16.3212 88.7609V112.731H24.7107C25.8387 112.731 26.6612 112.449 27.1782 111.885C27.7422 111.321 28.0242 110.451 28.0242 109.276V92.1449C28.0242 90.9699 27.7422 90.1239 27.1782 89.6069C26.6612 89.0429 25.8387 88.7609 24.7107 88.7609H16.3212Z" fill="#4C4C46"/>
<path d="M85.3475 126.056H52.6354C51.7424 126.056 51.0844 125.868 50.6614 125.492C50.2854 125.069 50.0974 124.411 50.0974 123.518V77.8334C50.0974 76.9404 50.2854 76.3059 50.6614 75.9299C51.0844 75.5069 51.7424 75.2954 52.6354 75.2954H85.3475C86.2405 75.2954 86.875 75.5069 87.251 75.9299C87.674 76.3059 87.8855 76.9404 87.8855 77.8334V86.0819C87.8855 86.9749 87.674 87.6329 87.251 88.0559C86.875 88.4319 86.2405 88.6199 85.3475 88.6199H65.8894V94.0484H79.6369C80.5299 94.0484 81.1644 94.2599 81.5405 94.6829C81.9635 95.059 82.175 95.6935 82.175 96.5865V104.13C82.175 105.023 81.9635 105.681 81.5405 106.104C81.1644 106.48 80.5299 106.668 79.6369 106.668H65.8894V112.731H85.3475C86.2405 112.731 86.875 112.942 87.251 113.365C87.674 113.741 87.8855 114.376 87.8855 115.269V123.518C87.8855 124.411 87.674 125.069 87.251 125.492C86.875 125.868 86.2405 126.056 85.3475 126.056Z" fill="#4C4C46"/>
<path d="M111.806 90.1004L108.492 100.816H119.561L116.247 90.1004C116.059 89.6774 115.848 89.3719 115.613 89.1839C115.425 88.9959 115.19 88.9019 114.908 88.9019H113.145C112.863 88.9019 112.605 88.9959 112.37 89.1839C112.182 89.3719 111.994 89.6774 111.806 90.1004ZM107.787 123.518C107.787 124.411 107.576 125.069 107.153 125.492C106.777 125.868 106.142 126.056 105.249 126.056H94.8859C93.9929 126.056 93.3349 125.868 92.9119 125.492C92.5359 125.069 92.3479 124.411 92.3479 123.518V104.905C92.3479 103.495 92.5594 101.874 92.9824 100.041C93.4524 98.208 94.1574 96.0695 95.0974 93.6254L101.231 77.6219C101.513 76.8229 101.936 76.2354 102.5 75.8594C103.111 75.4834 103.886 75.2954 104.826 75.2954H123.791C124.684 75.2954 125.412 75.4834 125.976 75.8594C126.587 76.2354 127.034 76.8229 127.316 77.6219L133.449 93.6254C134.389 96.0695 135.071 98.208 135.494 100.041C135.964 101.874 136.199 103.495 136.199 104.905V123.518C136.199 124.411 135.987 125.069 135.564 125.492C135.188 125.868 134.554 126.056 133.661 126.056H123.015C122.075 126.056 121.37 125.868 120.9 125.492C120.477 125.069 120.266 124.411 120.266 123.518V113.647H107.787V123.518Z" fill="#4C4C46"/>
<path d="M168.38 126.056H144.622C143.729 126.056 143.071 125.868 142.648 125.492C142.272 125.069 142.084 124.411 142.084 123.518V77.8334C142.084 76.9404 142.272 76.3059 142.648 75.9299C143.071 75.5069 143.729 75.2954 144.622 75.2954H168.38C174.255 75.2954 178.603 76.4704 181.423 78.8204C184.29 81.1704 185.723 84.7894 185.723 89.6774V111.673C185.723 116.561 184.29 120.18 181.423 122.531C178.603 124.881 174.255 126.056 168.38 126.056ZM158.087 88.7609V112.731H166.477C167.605 112.731 168.427 112.449 168.944 111.885C169.508 111.321 169.79 110.451 169.79 109.276V92.1449C169.79 90.9699 169.508 90.1239 168.944 89.6069C168.427 89.0429 167.605 88.7609 166.477 88.7609H158.087Z" fill="#4C4C46"/>
<path d="M11.1876 155.056H1.14418C0.7416 155.056 0.44496 154.971 0.254263 154.801C0.0847543 154.611 0 154.314 0 153.911V150.193C0 149.79 0.0847543 149.504 0.254263 149.335C0.44496 149.144 0.7416 149.049 1.14418 149.049H9.69377C9.96922 149.049 10.1705 148.964 10.2976 148.794C10.446 148.604 10.5201 148.381 10.5201 148.127C10.5201 147.767 10.446 147.502 10.2976 147.332C10.1705 147.163 9.96922 147.067 9.69377 147.046L4.92634 146.379C3.44314 146.167 2.24599 145.68 1.33488 144.917C0.44496 144.154 0 142.883 0 141.103V137.766C0 135.965 0.582686 134.587 1.74806 133.634C2.91343 132.659 4.52376 132.172 6.57905 132.172H15.4782C15.8808 132.172 16.1669 132.267 16.3364 132.458C16.5271 132.627 16.6224 132.913 16.6224 133.316V137.098C16.6224 137.501 16.5271 137.797 16.3364 137.988C16.1669 138.158 15.8808 138.242 15.4782 138.242H8.07284C7.79739 138.242 7.58551 138.338 7.43719 138.528C7.28887 138.698 7.21471 138.92 7.21471 139.196C7.21471 139.471 7.28887 139.704 7.43719 139.895C7.58551 140.086 7.79739 140.192 8.07284 140.213L12.8085 140.849C14.2917 141.06 15.4888 141.548 16.4 142.311C17.3111 143.073 17.7666 144.345 17.7666 146.125V149.462C17.7666 151.263 17.1733 152.651 15.9868 153.625C14.8214 154.579 13.2217 155.056 11.1876 155.056Z" fill="#4C4C46"/>
<path d="M32.6852 155.056C32.2826 155.056 31.986 154.971 31.7953 154.801C31.6258 154.611 31.541 154.314 31.541 153.911V150.129C31.541 149.727 31.6258 149.441 31.7953 149.271C31.986 149.08 32.2826 148.985 32.6852 148.985H35.8317V138.306H32.6852C32.2826 138.306 31.986 138.221 31.7953 138.052C31.6258 137.861 31.541 137.564 31.541 137.162V133.316C31.541 132.913 31.6258 132.627 31.7953 132.458C31.986 132.267 32.2826 132.172 32.6852 132.172H46.2247C46.6273 132.172 46.9133 132.267 47.0828 132.458C47.2735 132.627 47.3689 132.913 47.3689 133.316V137.162C47.3689 137.564 47.2735 137.861 47.0828 138.052C46.9133 138.221 46.6273 138.306 46.2247 138.306H43.1417V148.985H46.2247C46.6273 148.985 46.9133 149.08 47.0828 149.271C47.2735 149.441 47.3689 149.727 47.3689 150.129V153.911C47.3689 154.314 47.2735 154.611 47.0828 154.801C46.9133 154.971 46.6273 155.056 46.2247 155.056H32.6852Z" fill="#4C4C46"/>
<path d="M79.5798 155.056H69.5682C66.9196 155.056 64.9491 154.526 63.6566 153.466C62.3853 152.407 61.7496 150.775 61.7496 148.572V138.656C61.7496 136.452 62.3853 134.82 63.6566 133.761C64.9491 132.702 66.9196 132.172 69.5682 132.172H77.5139C77.9165 132.172 78.2025 132.267 78.372 132.458C78.5627 132.627 78.6581 132.913 78.6581 133.316V137.162C78.6581 137.564 78.5627 137.861 78.372 138.052C78.2025 138.221 77.9165 138.306 77.5139 138.306H70.9031C70.2462 138.306 69.7589 138.444 69.4411 138.719C69.1232 138.973 68.9643 139.365 68.9643 139.895V147.491C68.9643 148.021 69.0808 148.413 69.3139 148.667C69.5682 148.921 69.939 149.049 70.4263 149.049H73.5093V144.09C73.5093 143.688 73.594 143.402 73.7635 143.232C73.9542 143.042 74.2509 142.946 74.6534 142.946H79.5798C79.9824 142.946 80.2684 143.042 80.4379 143.232C80.6286 143.402 80.724 143.688 80.724 144.09V153.911C80.724 154.314 80.6286 154.611 80.4379 154.801C80.2684 154.971 79.9824 155.056 79.5798 155.056Z" fill="#4C4C46"/>
<path d="M101.319 155.056H96.5521C96.1495 155.056 95.8528 154.971 95.6621 154.801C95.4926 154.611 95.4079 154.314 95.4079 153.911V133.316C95.4079 132.913 95.4926 132.627 95.6621 132.458C95.8528 132.267 96.1495 132.172 96.5521 132.172H99.8575C100.26 132.172 100.599 132.235 100.875 132.363C101.171 132.49 101.457 132.712 101.733 133.03L107.899 140.086V133.316C107.899 132.913 107.983 132.627 108.153 132.458C108.344 132.267 108.64 132.172 109.043 132.172H113.81C114.213 132.172 114.499 132.267 114.668 132.458C114.859 132.627 114.954 132.913 114.954 133.316V153.911C114.954 154.314 114.859 154.611 114.668 154.801C114.499 154.971 114.213 155.056 113.81 155.056H109.043C108.64 155.056 108.344 154.971 108.153 154.801C107.983 154.611 107.899 154.314 107.899 153.911V150.002L102.464 143.423V153.911C102.464 154.314 102.368 154.611 102.178 154.801C102.008 154.971 101.722 155.056 101.319 155.056Z" fill="#4C4C46"/>
<path d="M138.44 138.846L136.946 143.677H141.936L140.442 138.846C140.357 138.656 140.262 138.518 140.156 138.433C140.071 138.348 139.965 138.306 139.838 138.306H139.044C138.916 138.306 138.8 138.348 138.694 138.433C138.609 138.518 138.524 138.656 138.44 138.846ZM136.628 153.911C136.628 154.314 136.533 154.611 136.342 154.801C136.172 154.971 135.886 155.056 135.484 155.056H130.812C130.409 155.056 130.113 154.971 129.922 154.801C129.752 154.611 129.668 154.314 129.668 153.911V145.521C129.668 144.885 129.763 144.154 129.954 143.328C130.165 142.501 130.483 141.537 130.907 140.435L133.672 133.221C133.799 132.86 133.99 132.596 134.244 132.426C134.52 132.257 134.869 132.172 135.293 132.172H143.843C144.245 132.172 144.574 132.257 144.828 132.426C145.103 132.596 145.305 132.86 145.432 133.221L148.197 140.435C148.621 141.537 148.928 142.501 149.119 143.328C149.331 144.154 149.436 144.885 149.436 145.521V153.911C149.436 154.314 149.341 154.611 149.15 154.801C148.981 154.971 148.695 155.056 148.292 155.056H143.493C143.069 155.056 142.751 154.971 142.54 154.801C142.349 154.611 142.254 154.314 142.254 153.911V149.462H136.628V153.911Z" fill="#4C4C46"/>
<path d="M181.489 155.056H165.311C164.908 155.056 164.612 154.971 164.421 154.801C164.252 154.611 164.167 154.314 164.167 153.911V133.316C164.167 132.913 164.252 132.627 164.421 132.458C164.612 132.267 164.908 132.172 165.311 132.172H170.237C170.64 132.172 170.926 132.267 171.096 132.458C171.286 132.627 171.382 132.913 171.382 133.316V149.049H175.736V143.9C175.736 143.497 175.821 143.211 175.99 143.042C176.181 142.851 176.477 142.756 176.88 142.756H181.489C181.891 142.756 182.177 142.851 182.347 143.042C182.537 143.211 182.633 143.497 182.633 143.9V153.911C182.633 154.314 182.537 154.611 182.347 154.801C182.177 154.971 181.891 155.056 181.489 155.056Z" fill="#4C4C46"/>
</svg>
