<svg preserveAspectRatio="none" width="100%" height="100%" overflow="visible" style="display: block;" viewBox="0 0 107.484 110.662" fill="none" xmlns="http://www.w3.org/2000/svg">
<g id="Vector">
<path d="M76.9774 4.86281C80.472 6.40281 84.547 7.54217 86.8052 11.0103C87.8397 12.4627 89.6186 15.8682 86.0987 14.6162C80.7748 12.5127 75.7537 8.33095 70.2153 7.46704C67.2884 6.94119 64.311 7.11647 61.3462 7.09143C57.246 7.09143 52.8935 6.37777 48.6798 7.01631C41.2364 7.96786 33.0739 11.3233 28.2798 16.8323C25.7314 19.8747 23.7128 23.9438 21.2527 27.5622C20.2056 29.1398 19.0954 30.805 18.5529 32.6079C17.5562 35.7505 17.8843 39.3063 17.1652 42.5115C16.3451 45.9421 14.7807 49.2224 14.4401 52.8033C13.2794 64.9105 18.9188 77.4559 27.4724 85.8946C32.1655 89.8009 37.931 91.8668 43.2045 94.7966C54.193 99.6419 67.137 95.36 77.5704 90.74C80.7874 89.1624 83.2728 86.5707 85.5689 83.8913C89.3158 79.5718 93.416 75.7906 95.3588 70.2817C101.276 55.2197 98.2101 37.4909 87.9533 25.0707C86.1492 22.9547 82.2635 19.2111 82.213 18.535C82.1878 18.0843 82.7177 18.3598 83.0709 18.4474C88.7102 20.7637 92.4067 26.1474 95.9266 30.83C97.2386 32.4452 98.7021 33.9977 99.7871 35.7756C101.591 38.6928 102.537 42.3362 104.468 45.2911C110.712 53.5921 105.956 58.5251 101.907 66.3127C100.834 69.0547 99.4969 72.8233 100.91 75.3399C101.831 76.6921 103.622 76.617 103.988 78.0694C104.392 80.8364 102.714 83.8287 101.036 85.9196C99.1563 87.9229 96.8602 88.8619 94.1099 91.6414C89.9088 96.0736 87.108 99.7296 81.1785 102.108C68.5499 109.621 68.5121 113.239 52.4772 108.594C47.4561 106.866 42.2709 106.904 37.1614 107.918C28.6583 108.569 22.9937 101.633 20.1551 93.9953C15.0961 83.8788 15.2728 91.2658 12.6108 88.9746C10.4156 86.8962 8.44753 83.0149 6.63083 79.8347C4.35996 75.5277 1.96293 71.5463 0.80226 66.8136C-1.98587 51.6764 2.56849 33.1087 13.2921 21.9656C14.5915 20.5508 16.0423 19.4991 17.1147 17.9716C18.2754 16.1937 18.8557 13.5519 20.5841 11.9118C22.3503 10.0963 24.8104 9.20737 26.829 7.66737C29.2512 5.86444 32.4052 3.16004 36.1396 1.7202C43.8227 -1.54762 51.9473 0.768651 59.7945 1.18182C63.7559 1.30703 67.2883 -0.771354 70.3666 0.380519C72.7763 1.29451 74.4668 3.56069 76.7503 4.7376L76.9522 4.83777L76.9774 4.86281Z" fill="var(--fill-0, #5D5D51)" fill-opacity="0.47"/>
<path d="M71.1622 80.4506C77.7817 73.9949 84.4878 66.8423 84.2161 57.1343C82.944 45.5556 74.3114 32.4852 61.418 32.3629C56.4287 32.3996 51.5751 35.1629 47.2774 36.9969C44.0417 38.4396 41.2259 40.6893 39.5957 43.8438C33.8159 53.4296 40.2008 68.2484 51.2664 70.2536C59.7384 71.843 69.3467 65.2528 69.0133 56.3273C69.1491 48.8812 61.665 42.5478 54.6132 45.8001C52.7854 46.5949 51.1676 48.0498 50.0684 49.8594C47.8825 53.2706 47.8825 58.1246 47.1539 58.4181C45.9436 58.4181 44.7827 53.9431 45.6595 50.2384C47.2403 43.6971 54.9961 39.1121 61.6403 40.2125C73.521 42.2177 79.0661 57.3421 73.0764 67.417C69.6678 74.0927 62.2331 77.4429 55.2925 79.1424C52.2791 80.0594 49.3151 80.9397 46.2153 81.172C38.6324 81.6244 33.9641 74.2884 29.3452 69.1409C26.6282 65.7541 25.6279 61.4503 25.0845 57.2443C24.01 51.1187 24.0594 45.5434 28.5919 41.0806C30.642 38.9165 31.3953 36.2266 31.2471 33.4144C31.0372 26.812 38.7065 24.6723 43.5353 22.0803C70.31 8.85096 99.5423 43.5871 85.9944 68.5418C81.9313 76.4403 74.8548 83.1038 66.2222 85.8915C64.4438 86.3806 63.7645 86.2828 64.4314 85.647C66.5186 83.8986 68.9639 82.6148 70.9769 80.6218L71.1622 80.4506Z" fill="var(--fill-0, #5D5D51)" fill-opacity="0.47"/>
<path d="M92.6223 21.8277C90.3767 18.1091 94.767 18.998 96.5333 20.6382C97.2397 21.2392 97.8705 22.0781 98.2869 22.9294C99.2205 24.7199 98.0724 26.7732 96.0286 25.5838C94.7796 24.8576 93.5054 23.0296 92.7359 21.9904L92.6223 21.8151V21.8277Z" fill="var(--fill-0, #5D5D51)" fill-opacity="0.47"/>
<path d="M61.3936 60.2763C61.882 58.9056 61.9169 57.2421 61.2075 55.9652C59.9631 53.6692 56.2997 53.6223 55.6485 56.4338C55.1716 58.2496 56.1834 61.2369 53.683 61.7523C52.8922 61.9749 51.9967 61.7289 51.2291 61.8694C50.6011 62.0569 52.5782 63.4275 54.4971 63.7204C57.1487 64.271 60.219 63.1463 61.3005 60.5105L61.3936 60.2763Z" fill="var(--fill-0, #5D5D51)" fill-opacity="0.47"/>
</g>
</svg>
