<svg preserveAspectRatio="none" width="986" height="772" viewBox="0 0 986 772" fill="none" xmlns="http://www.w3.org/2000/svg">
<g transform="translate(0, 31.315)">
<path id="Union" fill-rule="evenodd" clip-rule="evenodd" d="M845.214 61.2656V108.114H879.367L951 179.747V253.465H950.789V469.179L915.086 504.179H654.249C659.931 521.729 663 540.447 663 559.869C663 659.738 581.957 740.685 482 740.685C382.043 740.685 301 659.738 301 559.869C301 527.772 309.378 497.613 324.069 471.474H128.789V471.707H36.499L0 435.207V357.5H107.881V101.24L175.507 34.0625H346.414L388.004 75.6533V114.038H473.479V37.3574L510.838 0H783.948L845.214 61.2656ZM486.174 42.6162V114.038H513V126.732H382.805L343.149 166.388V288.685H330.456V167.644H259.041L248.681 178.003L243.295 172.617L255.887 160.026H331.558L375.31 116.274V80.9102L341.156 46.7568H180.739L120.575 106.523V214.613H201.3L212.032 203.88L217.418 209.266L204.455 222.229H204V312.685H197V222.229H120.575V305.685H171V312.685H120.575V365.387H120.554V375.685H261V382.685H120.554V391.185H107.902V370.151H12.6514V429.967L41.7402 459.056H107.902V419.185H120.554V458.822H297V368.685H297.006L303.689 362.001L308.639 366.951L304 371.59V458.822H344.74L371.733 431.522V386.867L330.456 345.59V325.685H343.149V340.331L382.805 379.985H453V392.68H384.385V436.721L350.023 471.474H340.348C324.286 497.099 315 527.391 315 559.869C315 651.992 389.761 726.685 482 726.685C574.239 726.685 649 651.992 649 559.869C649 540.329 645.637 521.587 639.467 504.179H616.308L583.075 469.038V392.68H513V379.985H588.908L628.562 340.331V166.388L588.908 126.732H553V114.038H594.167L634.577 154.448H666.133L712.467 108.114H755.295V82.0908H762.912V108.114H832.52L832.519 66.5234L778.689 12.6943H762.912V44.6416H755.295V12.6943H516.097L486.174 42.6162ZM838.442 120.809V150.685H830.827V120.809H717.726L671.391 167.144H641.257V249.444H666V257.062H641.257V296.838H708V304.454H641.257V345.59L595.77 391.078V463.986L621.775 491.485H860.87V331.843L833.48 304.454H767V296.838H836.636L868.486 328.688V491.485H909.901L938.095 463.848V257.062H712V249.444H830.827V187.685H838.442V249.444H938.095V247.752H938.306V185.005L874.108 120.808L838.442 120.809Z" fill="url(#paint0_linear_0_4)"/>
</g>
<defs>
<linearGradient id="paint0_linear_0_4" x1="475.5" y1="31.315" x2="475.5" y2="772" gradientUnits="userSpaceOnUse">
<stop stop-color="#20313A"/>
<stop offset="1" stop-color="#151F21"/>
</linearGradient>
</defs>
</svg>
